<!-- Generated by IcoMoon.io -->
<svg version="1.1" xmlns="http://www.w3.org/2000/svg" width="768" height="768" viewBox="0 0 768 768">
<title></title>
<g id="icomoon-ignore">
</g>
<path d="M42.931 84.769l47.869 550.533v47.498c0.042 33.122 26.878 59.958 59.999 60h120c33.122-0.042 59.958-26.878 60-60v-47.498l47.865-550.533 11.78-47.053c0.895-3.586 0.094-7.388-2.184-10.298-2.273-2.911-5.761-4.617-9.46-4.617h-335.999c-3.698 0-7.181 1.706-9.464 4.617-2.273 2.911-3.075 6.712-2.179 10.298l11.775 47.053zM319.282 490.8h-216.961l-6.253-72h229.462l-6.249 72zM317.195 514.8l-9.398 108h-193.992l-9.398-108h212.788zM168.799 646.8h84v12c0 6.628-5.371 12-12 12h-60c-6.628 0-12-5.372-12-12v-12zM306.799 682.8c0 19.88-16.12 36-36 36h-120c-19.879 0-36-16.12-36-36v-36h30v12c0 19.88 16.121 36 36 36h60c19.88 0 36-16.12 36-36v-12h30v36zM327.616 394.8h-233.634l-26.091-300h285.82l-26.096 300zM363.424 46.8l-6 24h-293.254l-6-24h305.254z"></path>
<path d="M486.801 742.8h168.001c19.88 0 36-16.12 36-36v-456c-0.029-23.831-14.161-45.379-36-54.914v-41.086c0-6.628-5.372-12-12.001-12h-36v-48h120.001c4.851 0 9.23-2.925 11.085-7.406 1.857-4.481 0.826-9.647-2.601-13.079l-24.001-24c-1.833-1.833-4.213-3.023-6.778-3.398l-168-24c-0.567-0.075-1.139-0.117-1.707-0.117h-48c-6.628 0-12 5.371-12 12v48c0 6.629 5.372 12 12 12h48v48h-36c-6.628 0-12 5.372-12 12v41.086c-21.839 9.535-35.972 31.083-36 54.914v456c0 19.88 16.12 36 36 36zM666.802 310.8h-192.001v-24h192.001v24zM666.802 574.8h-192.001v-240h192.001v240zM654.802 718.8h-168.001c-6.628 0-12-5.372-12-12v-108h192.001v108c0 6.628-5.372 12-12 12zM498.801 46.8h35.152l163.195 23.315 0.685 0.685h-199.032v-24zM558.801 94.8h24v48h-24v-48zM510.801 166.8h120v24h-120v-24zM510.801 214.8h120c19.881 0 36.001 16.121 36.001 36v12h-192.001v-12c0-19.879 16.121-36 36-36z"></path>
<path d="M138.801 466.8h144c6.628 0 12-5.372 12-12s-5.372-12-12-12h-144c-6.628 0-12 5.372-12 12s5.372 12 12 12z"></path>
<path d="M570.801 670.8h-48v-36c0-6.628-5.372-12-12-12s-12 5.372-12 12v48c0 6.628 5.372 12 12 12h60c6.628 0 12-5.372 12-12s-5.372-12-12-12z"></path>
<path d="M630.801 670.8h-12c-6.628 0-12 5.372-12 12s5.372 12 12 12h12c6.628 0 12-5.372 12-12s-5.372-12-12-12z"></path>
<path d="M267.007 598.19c6.291 2.086 13.073-1.313 15.164-7.598l12-36c2.101-6.295-1.303-13.097-7.603-15.197-6.299-2.091-13.096 1.313-15.192 7.612l-12 36c-1.004 3.024-0.764 6.323 0.665 9.169 1.43 2.85 3.938 5.012 6.966 6.014z"></path>
</svg>
